<svg xmlns="http://www.w3.org/2000/svg" width="64" height="64" viewBox="0 0 64 64" fill="none" aria-hidden="true">
  <path d="M16 26H40C40 26 40 44 40 48C40 51.3 37.3 54 34 54H26C22.7 54 20 51.3 20 48V26H16Z" fill="#FFFCF7" stroke="#C4B8A8" stroke-width="1.3" stroke-linejoin="round"/>
  <path d="M40 32H44C46.2 32 48 33.8 48 36V42C48 44.2 46.2 46 44 46H40" stroke="#C4B8A8" stroke-width="1.3" stroke-linecap="round"/>
  <path d="M28 40C28 40 29 43 32 45C35 43 36 40 36 40" stroke="#E07070" stroke-width="1.4" fill="none" stroke-linecap="round" stroke-linejoin="round"/>
  <path d="M22 20C22 20 25 16 32 16C39 16 42 20 42 20" stroke="#A8A8B8" stroke-width="1.6" stroke-linecap="round" fill="none"/>
  <path d="M26 14C26 14 28 12 32 12C36 12 38 14 38 14" stroke="#B8B8C8" stroke-width="1.2" stroke-linecap="round" fill="none"/>
</svg>
